<?xml version="1.0" encoding="utf-8"?>
<!-- Generator: Adobe Illustrator 23.0.1, SVG Export Plug-In . SVG Version: 6.00 Build 0)  -->
<svg version="1.1" id="Layer_1" xmlns="http://www.w3.org/2000/svg" xmlns:xlink="http://www.w3.org/1999/xlink" x="0px" y="0px"
	 viewBox="0 0 32 32" style="enable-background:new 0 0 32 32;" xml:space="preserve">
<style type="text/css">
	.st0{fill:#FFF;}
	.st1{fill:#D83B01;}
</style>
<symbol  id="Arrow-Circle-Up" viewBox="-16 -16 32 32">
	<path class="st0" d="M-15.98,0.75c-0.41-8.83,6.41-16.32,15.24-16.73S15.57-9.57,15.98-0.75S9.57,15.57,0.75,15.98
		C-8.08,16.39-15.57,9.57-15.98,0.75z M8.57,0.99L7.16-0.43L0.7,6.03L0.74-9.85l-2.01,0l0.01,15.9l-6.4-6.4l-1.41,1.41l8.78,8.78
		L8.57,0.99z"/>
	<polygon class="st1" points="-7.66,-0.35 -1.26,6.05 -1.27,-9.85 0.74,-9.85 0.7,6.03 7.16,-0.43 8.57,0.99 -0.29,9.85 -9.07,1.07 
			"/>
</symbol>
<use xlink:href="#Arrow-Circle-Up"  width="32" height="32" id="XMLID_1_" x="-16" y="-16" transform="matrix(1 0 0 -1 16.0003 16.0003)" style="overflow:visible;"/>
</svg>
