<?xml version="1.0" encoding="utf-8"?>
<!-- Generator: Adobe Illustrator 23.0.1, SVG Export Plug-In . SVG Version: 6.00 Build 0)  -->
<svg version="1.1" id="Layer_1" xmlns="http://www.w3.org/2000/svg" xmlns:xlink="http://www.w3.org/1999/xlink" x="0px" y="0px"
	 viewBox="0 0 128.14 230.54" style="enable-background:new 0 0 128.14 230.54;" xml:space="preserve">
<style type="text/css">
	.st0{fill:#FEF000;}
	.st1{fill:#FFFFFF;}
</style>
<rect x="35.41" y="138.06" class="st0" width="22.14" height="22.14"/>
<rect x="35.41" y="173.22" class="st0" width="22.14" height="22.14"/>
<rect x="70.83" y="173.22" class="st0" width="22.14" height="22.14"/>
<rect x="70.83" y="138.06" class="st0" width="22.14" height="22.14"/>
<rect x="70.58" y="103.25" class="st0" width="22.14" height="22.14"/>
<rect x="35.41" y="208.39" class="st0" width="22.14" height="22.14"/>
<rect x="70.58" y="32.91" class="st0" width="22.14" height="22.14"/>
<rect x="70.83" y="208.39" class="st0" width="22.14" height="22.14"/>
<rect x="106" y="138.06" class="st0" width="22.14" height="22.14"/>
<rect x="106" y="208.39" class="st0" width="22.14" height="22.14"/>
<rect x="35.41" y="103.25" class="st0" width="22.14" height="22.14"/>
<rect x="106" y="173.22" class="st0" width="22.14" height="22.14"/>
<rect x="105.75" y="103.25" class="st0" width="22.14" height="22.14"/>
<rect x="70.58" y="68.08" class="st0" width="22.14" height="22.14"/>
<rect y="208.39" class="st1" width="22.14" height="22.14"/>
<rect x="106" class="st0" width="22.14" height="22.14"/>
<rect x="105.75" y="32.91" class="st0" width="22.14" height="22.14"/>
<rect x="105.75" y="68.08" class="st0" width="22.14" height="22.14"/>
</svg>
