<?xml version="1.0" encoding="utf-8"?>
<!-- Generator: Adobe Illustrator 23.0.1, SVG Export Plug-In . SVG Version: 6.00 Build 0)  -->
<svg version="1.1" id="Layer_1" xmlns="http://www.w3.org/2000/svg" xmlns:xlink="http://www.w3.org/1999/xlink" x="0px" y="0px"
	 viewBox="0 0 367 293.09" style="enable-background:new 0 0 367 293.09;" xml:space="preserve">
<style type="text/css">
	.st0{opacity:0.9;fill:#FFFFFF;}
	.st1{fill:#FEF000;}
</style>
<path class="st0" d="M26.76,293.09L26.76,293.09C11.98,293.09,0,281.11,0,266.33v0c0-14.78,11.98-26.76,26.76-26.76h0
	c14.78,0,26.76,11.98,26.76,26.76v0C53.52,281.11,41.54,293.09,26.76,293.09z"/>
<rect x="78.05" y="239.57" class="st1" width="53.52" height="53.52"/>
<rect x="156.1" y="239.57" class="st1" width="53.52" height="53.52"/>
<rect x="234.15" y="239.57" class="st1" width="53.52" height="53.52"/>
<rect x="312.2" y="239.57" class="st1" width="53.52" height="53.52"/>
<rect x="1.27" y="159.71" class="st1" width="53.52" height="53.52"/>
<rect x="79.33" y="159.71" class="st1" width="53.52" height="53.52"/>
<rect x="157.38" y="159.71" class="st1" width="53.52" height="53.52"/>
<rect x="235.43" y="159.71" class="st1" width="53.52" height="53.52"/>
<rect x="313.48" y="159.71" class="st1" width="53.52" height="53.52"/>
<rect x="1.27" y="79.86" class="st1" width="53.52" height="53.52"/>
<rect x="79.33" y="79.86" class="st1" width="53.52" height="53.52"/>
<rect x="157.38" y="79.86" class="st1" width="53.52" height="53.52"/>
<rect x="235.43" y="79.86" class="st1" width="53.52" height="53.52"/>
<rect x="1.27" class="st1" width="53.52" height="53.52"/>
<rect x="79.33" class="st1" width="53.52" height="53.52"/>
<rect x="157.38" class="st1" width="53.52" height="53.52"/>
<rect x="235.43" class="st1" width="53.52" height="53.52"/>
</svg>
