<?xml version="1.0" encoding="utf-8"?>
<!-- Generator: Adobe Illustrator 23.0.1, SVG Export Plug-In . SVG Version: 6.00 Build 0)  -->
<svg version="1.1" id="Layer_1" xmlns="http://www.w3.org/2000/svg" xmlns:xlink="http://www.w3.org/1999/xlink" x="0px" y="0px"
	 viewBox="0 0 840 831.5" style="enable-background:new 0 0 840 831.5;" xml:space="preserve">
<style type="text/css">
	.st0{fill:#3C3C41;}
	.st1{fill:none;}
	.st2{fill:#FFFFFF;}
	.st3{font-family:'SegoeUI';}
	.st4{font-size:30px;}
	.st5{fill:#30EFD0;}
	.st6{font-family:'SegoeUI-Bold';}
	.st7{font-size:200px;}
	.st8{font-family:'SegoeUI-Semibold';}
	.st9{font-size:40px;}
	.st10{fill:#FEF000;}
	.st11{fill:none;stroke:#FFFFFF;stroke-width:3;stroke-miterlimit:10;}
</style>
<g id="Stage_3_Stat">
	<rect y="0" class="st0" width="840" height="831"/>
	<rect x="207" y="729.74" class="st1" width="446" height="53.26"/>
	<text transform="matrix(1 0 0 1 207 751.9512)" class="st2 st3 st4" style="text-decoration: underline;">Heinz Marketing</text>
	<rect x="208" y="109" class="st1" width="445" height="603"/>
	<text transform="matrix(1 0 0 1 208 257.0469)"><tspan x="0" y="0" class="st5 st6 st7">96%</tspan><tspan x="403.52" y="0" class="st2 st8 st7"> </tspan><tspan x="0" y="110" class="st2 st8 st9">believe their </tspan><tspan x="0" y="160" class="st2 st8 st9">relationship with a </tspan><tspan x="0" y="210" class="st2 st8 st9">target account’s </tspan><tspan x="0" y="260" class="st2 st8 st9">stakeholder or </tspan><tspan x="0" y="310" class="st2 st8 st9">champion played a </tspan><tspan x="0" y="360" class="st2 st8 st9">major role in the </tspan><tspan x="0" y="410" class="st2 st8 st9">outcome of a sale.</tspan></text>
	<rect x="49.31" y="44" class="st10" width="33.78" height="783.69"/>
	<g id="Gauge_2_">
		<line class="st11" x1="132.5" y1="831.5" x2="132.5" y2="0"/>
		<g>
			<line class="st11" x1="117.76" y1="748.33" x2="132.5" y2="748.33"/>
			<line class="st11" x1="117.76" y1="665.16" x2="132.5" y2="665.16"/>
			<line class="st11" x1="117.76" y1="581.98" x2="132.5" y2="581.98"/>
			<line class="st11" x1="117.76" y1="498.81" x2="132.5" y2="498.81"/>
			<line class="st11" x1="117.76" y1="415.64" x2="132.5" y2="415.64"/>
			<line class="st11" x1="117.76" y1="332.47" x2="132.5" y2="332.47"/>
			<line class="st11" x1="117.76" y1="249.3" x2="132.5" y2="249.3"/>
			<line class="st11" x1="117.76" y1="166.12" x2="132.5" y2="166.12"/>
			<line class="st11" x1="117.76" y1="82.95" x2="132.5" y2="82.95"/>
		</g>
	</g>
</g>
</svg>
