<?xml version="1.0" encoding="utf-8"?>
<!-- Generator: Adobe Illustrator 23.0.1, SVG Export Plug-In . SVG Version: 6.00 Build 0)  -->
<svg version="1.1" id="Layer_1" xmlns="http://www.w3.org/2000/svg" xmlns:xlink="http://www.w3.org/1999/xlink" x="0px" y="0px"
	 viewBox="0 0 964 798.5" style="enable-background:new 0 0 964 798.5;" xml:space="preserve">
<style type="text/css">
	.st0{fill:#3C3C41;}
	.st1{fill:none;}
	.st2{fill:#FFFFFF;}
	.st3{font-family:'SegoeUI';}
	.st4{font-size:20px;}
	.st5{font-family:'SegoeUI-Semibold';}
	.st6{font-size:36px;}
	.st7{fill:#FEF000;}
	.st8{fill:#30EFD0;}
	.st9{fill:#EBEBEB;}
	.st10{fill:none;stroke:#FFFFFF;stroke-width:3;stroke-miterlimit:10;}
</style>
<g id="Stage_4_Stat">
	<rect y="0.5" class="st0" width="964" height="798"/>
	<rect x="276.74" y="715.42" class="st1" width="499.26" height="75.21"/>
	<rect x="277" y="83" class="st1" width="510" height="308"/>
	<rect x="408" y="457.14" class="st1" width="364" height="181.86"/>
	<rect x="86" y="37.9" class="st7" width="34.09" height="303.88"/>
	<rect x="86" y="341.89" class="st8" width="34.09" height="247.9"/>
	<rect x="86" y="589.88" class="st9" width="34.09" height="199.92"/>
	<g id="Gauge_3_">
		<line class="st10" x1="205.5" y1="790.5" x2="205.5" y2="0"/>
		<g>
			<line class="st10" x1="190.76" y1="711.43" x2="205.5" y2="711.43"/>
			<line class="st10" x1="190.76" y1="632.36" x2="205.5" y2="632.36"/>
			<line class="st10" x1="190.76" y1="553.29" x2="205.5" y2="553.29"/>
			<line class="st10" x1="190.76" y1="474.22" x2="205.5" y2="474.22"/>
			<line class="st10" x1="190.76" y1="395.15" x2="205.5" y2="395.15"/>
			<line class="st10" x1="190.76" y1="316.08" x2="205.5" y2="316.08"/>
			<line class="st10" x1="190.76" y1="237" x2="205.5" y2="237"/>
			<line class="st10" x1="190.76" y1="157.93" x2="205.5" y2="157.93"/>
			<line class="st10" x1="190.76" y1="78.86" x2="205.5" y2="78.86"/>
		</g>
	</g>
</g>
</svg>
